<svg width="97" height="50" viewBox="0 0 97 50" fill="none" xmlns="http://www.w3.org/2000/svg">
<path d="M79.5869 34C79.2132 34.368 78.7358 34.6338 78.3514 35.0122C77.959 35.3987 77.4391 35.7586 77.093 36.1846C76.8343 36.5029 76.5289 36.6444 76.2515 36.9237C75.9245 37.253 75.8976 37.4499 76.2821 37.6864C76.9698 38.1097 77.8287 38.4118 78.5847 38.581C79.0408 38.683 79.5482 39 80 39" stroke="#6f2339" stroke-width="3" stroke-linecap="round"/>
<path d="M85 33C85 34.1746 84.4844 35.3483 84.0764 36.3793C83.8054 37.0641 83.4395 37.7646 83.309 38.5204C83.2249 39.008 83.1213 39.5316 83 40" stroke="#6f2339" stroke-width="3" stroke-linecap="round"/>
<path d="M88.9649 33C88.9649 33.4812 89.7856 33.8301 90.1491 34.0541C90.7418 34.4192 91.3157 34.9333 91.9474 35.2252C92.5318 35.4953 93 35.7499 93 36.3649C93 37.4765 90.8658 37.7474 90.037 38.1712C89.6372 38.3756 89.179 38.4008 88.7895 38.6126C88.5354 38.7507 88.3154 39 88 39" stroke="#6f2339" stroke-width="3" stroke-linecap="round"/>
<path d="M2 37.3603C5.29701 35.6146 9.23772 35.1595 12.7885 34.4357C26.0182 31.7389 39.1246 28.4375 52.2279 25.0588C64.0204 22.0182 75.7717 18.8092 87.5113 15.5256C89.9445 14.845 92.3971 13.9437 94.8996 13.6396" stroke="#6f2339" stroke-width="3" stroke-linecap="round"/>
<path d="M35.6978 23.6459C35.6978 24.9157 33.6851 26.2001 32.5425 26.2001C31.1152 26.2001 30.4236 25.6614 29.9299 24.1801C29.5014 22.8948 29.1273 20.4934 29.6962 19.2135C30.2413 17.9869 31.0475 16.4722 32.2087 15.716C32.9934 15.205 34.3018 15.595 34.6127 16.5842C34.9515 17.6623 35.4319 18.1746 34.3122 18.8713C33.0973 19.6272 32.0828 20.1931 30.7396 20.6409" stroke="#6f2339" stroke-width="3" stroke-linecap="round"/>
<path d="M38.8531 14.1802C38.8531 15.2277 39.1179 16.391 39.3038 17.4189C39.6185 19.1591 39.7546 20.9434 39.7546 22.711C39.7546 22.9294 39.6931 23.9917 39.8714 23.2786C40.2803 21.6429 40.4302 20.0838 40.5142 18.4038C40.5854 16.9786 41.1547 16.0973 42.0083 15.0065C42.341 14.5814 43.9809 12.7137 44.5709 13.3037C45.5675 14.3004 45.9511 16.5307 46.065 17.8696C46.2024 19.484 46.4161 21.4763 47.267 22.8946" stroke="#6f2339" stroke-width="3" stroke-linecap="round"/>
<path d="M50.1217 11.6259C50.995 13.4694 51.7955 15.6928 52.075 17.7194C52.1895 18.5496 52.5337 19.2292 52.7928 20.0065C52.9976 20.6208 52.8262 20.2312 52.8262 19.706C52.8262 17.7512 52.3133 15.4101 53.2853 13.5875C53.8399 12.5477 55.379 11.6259 56.5825 11.6259" stroke="#6f2339" stroke-width="3" stroke-linecap="round"/>
<path d="M60.6392 11.1752C60.6392 12.0854 61.195 18.2369 60.9397 18.2369" stroke="#6f2339" stroke-width="3" stroke-linecap="round"/>
<path d="M60.489 6.3672C60.489 6.17035 60.8084 5.56969 60.9314 5.99992C61.0162 6.29694 60.4707 6.63123 60.3387 6.3672" stroke="#6f2339" stroke-width="3" stroke-linecap="round"/>
<path d="M68.3019 9.97318C67.4657 10.0661 66.7296 11.6483 66.6575 12.3688C66.5653 13.2917 66.0055 14.0543 66.3487 14.9982C66.6052 15.7036 68.1196 15.3822 68.6692 15.3822C71.1332 15.3822 72.7193 11.9223 71.8996 9.87301C71.6855 9.33793 71.2136 8.92828 70.6976 8.69606C70.5843 8.64509 69.7067 8.39587 69.9881 8.50407C71.5409 9.10133 72.6995 9.66101 73.1099 11.3254C74.0327 15.0678 73.1708 19.3422 72.9931 23.1283C72.903 25.0474 72.8094 26.9582 72.8094 28.8795C72.8094 29.2306 73.008 30.3829 72.6592 30.5573" stroke="#6f2339" stroke-width="3" stroke-linecap="round"/>
<path d="M76.4498 7.57309C77.4097 7.72705 76.3154 14.1587 78.3136 12.8157C79.599 11.9518 80.8837 9.36523 81.0913 7.57309C81.2146 6.50884 81.2885 5.42932 81.2885 4.35395C81.2885 3.91648 81.2529 3.88303 81.4498 4.26197" stroke="#6f2339" stroke-width="3" stroke-linecap="round"/>
<path d="M92.4498 9.80234C91.7565 10.1332 90.1323 9.96524 89.3492 9.89139C88.461 9.80762 87.5245 9.6174 87.1017 8.95C86.4075 7.85416 86.249 6.22029 86.1338 5.01907C86.014 3.7705 86.7535 2.69811 88.2336 2.14402C89.9873 1.48751 90.9741 3.22675 90.8092 4.31303C90.6749 5.19874 89.6366 5.69549 88.6602 6.01771C87.7113 6.33081 84.6268 6.59653 85.658 6.59653" stroke="#6f2339" stroke-width="3" stroke-linecap="round"/>
<path d="M22.4498 5C23.0398 7.10489 22.9834 9.35269 23.1998 11.4914C23.7336 16.7672 24.5083 22.0668 24.7498 27.3536C24.9766 32.3193 24.9522 37.3235 24.8164 42.2921C24.763 44.2469 24.7437 46.111 25.4498 48" stroke="#6f2339" stroke-width="3" stroke-linecap="round"/>
<path d="M12.4498 3C12.0059 4.99309 11.7289 7.0356 11.6027 9.06045C11.1416 16.4609 11.8574 23.9198 11.9931 31.3201C12.0761 35.8472 11.8238 40.3419 11.5953 44.8595C11.5543 45.6716 11.7218 46.3037 12.1846 47" stroke="#6f2339" stroke-width="3" stroke-linecap="round"/>
</svg>
